<svg xmlns="http://www.w3.org/2000/svg" viewBox="0 0 100 100" width="100" height="100">
  <ellipse cx="50" cy="50" rx="46" ry="46" fill="white" stroke="#E2E8F0" stroke-width="2"/>
  <path d="M68,44 C76,44 76,60 68,60" fill="none" stroke="#E74C3C" stroke-width="4.5" stroke-linecap="round" />
  <path d="M30,36 L70,36 L66,66 C66,72 34,72 34,66 Z" fill="#E74C3C" />
  <rect x="33" y="44" width="34" height="14" rx="2" fill="#FFFFFF" />
  <circle cx="45" cy="51" r="2" fill="#2C3E50" />
  <circle cx="55" cy="51" r="2" fill="#2C3E50" />
  <path d="M48,54 Q50,56 52,54" stroke="#2C3E50" stroke-width="1.5" fill="none" stroke-linecap="round" />
  <path d="M40,24 Q42,18 40,16 Q45,18 43,24 Z" fill="#FF8A8A" />
  <path d="M50,22 Q52,14 50,12 Q55,14 53,22 Z" fill="#FF8A8A" />
  <path d="M60,25 Q62,19 60,17 Q65,19 63,25 Z" fill="#FF8A8A" />
</svg>
