<svg xmlns="http://www.w3.org/2000/svg" viewBox="0 0 100 100" width="100" height="100">
  <ellipse cx="50" cy="50" rx="46" ry="46" fill="white" stroke="#E2E8F0" stroke-width="2"/>
  <path d="M30,68 C30,30 70,30 70,68 C70,72 65,76 60,72 C55,76 50,72 45,76 C40,72 35,76 30,68 Z" fill="#F5F6FA" stroke="#BDC3C7" stroke-width="2" />
  <path d="M27,52 C22,50 22,58 27,56 Z" fill="#F5F6FA" stroke="#BDC3C7" stroke-width="1.5" />
  <path d="M73,52 C78,50 78,58 73,56 Z" fill="#F5F6FA" stroke="#BDC3C7" stroke-width="1.5" />
  <circle cx="42" cy="46" r="3.5" fill="#2C3E50" />
  <circle cx="43" cy="44" r="1" fill="#FFFFFF" />
  <circle cx="58" cy="46" r="3.5" fill="#2C3E50" />
  <circle cx="59" cy="44" r="1" fill="#FFFFFF" />
  <circle cx="50" cy="52" r="3" fill="#2C3E50" />
  <ellipse cx="37" cy="52" rx="4" ry="2" fill="#FF8A8A" opacity="0.7" />
  <ellipse cx="63" cy="52" rx="4" ry="2" fill="#FF8A8A" opacity="0.7" />
</svg>
